<?xml version="1.0" encoding="utf-8"?>
<!-- Generator: Adobe Illustrator 23.1.0, SVG Export Plug-In . SVG Version: 6.00 Build 0)  -->
<svg version="1.1" id="Слой_1" xmlns="http://www.w3.org/2000/svg" xmlns:xlink="http://www.w3.org/1999/xlink" x="0px" y="0px"
	 viewBox="0 0 55.17 59.99" style="enable-background:new 0 0 55.17 59.99;" xml:space="preserve">
<style type="text/css">
	.st0{fill:#B0CE9F;}
</style>
<g>
	<g>
		<g>
			<path class="st0" d="M53.5,57.32c-5.81,0-11.63,0-17.44,0c-9.26,0-18.53,0-27.79,0c-2.12,0-4.24,0-6.36,0
				c0.33,0.33,0.67,0.67,1,1c0-10.63,0-21.26,0-31.89c0-1.49,0-2.98,0-4.47c-0.33,0.33-0.67,0.67-1,1c5.81,0,11.63,0,17.44,0
				c9.26,0,18.53,0,27.79,0c2.12,0,4.24,0,6.36,0c-0.33-0.33-0.67-0.67-1-1c0,10.63,0,21.26,0,31.89c0,1.49,0,2.98,0,4.47
				c0,1.29,2,1.29,2,0c0-10.63,0-21.26,0-31.89c0-1.49,0-2.98,0-4.47c0-0.54-0.46-1-1-1c-5.81,0-11.63,0-17.44,0
				c-9.26,0-18.53,0-27.79,0c-2.12,0-4.24,0-6.36,0c-0.54,0-1,0.46-1,1c0,10.63,0,21.26,0,31.89c0,1.49,0,2.98,0,4.47
				c0,0.54,0.46,1,1,1c5.81,0,11.63,0,17.44,0c9.26,0,18.53,0,27.79,0c2.12,0,4.24,0,6.36,0C54.78,59.32,54.79,57.32,53.5,57.32z"/>
		</g>
	</g>
	<g>
		<g>
			<path class="st0" d="M12.29,32.52c0.02-6.26,0.73-12.7,3.2-18.51c1.62-3.8,4.11-7.48,7.8-9.52c3.01-1.67,6.73-1.97,9.91-0.57
				c3.61,1.59,6.02,4.99,7.61,8.48c2.83,6.23,3.47,13.37,3.49,20.13c0,1.29,2,1.29,2,0c-0.02-6.57-0.65-13.4-3.09-19.56
				c-1.63-4.12-4.17-8.18-8.16-10.36c-3.38-1.85-7.49-2.07-11.06-0.64c-4.19,1.67-7.29,5.22-9.33,9.16
				c-3.39,6.54-4.34,14.13-4.36,21.4C10.28,33.8,12.28,33.81,12.29,32.52L12.29,32.52z"/>
		</g>
	</g>
</g>
</svg>
