<?xml version="1.0" encoding="utf-8"?>
<!-- Generator: Adobe Illustrator 23.1.0, SVG Export Plug-In . SVG Version: 6.00 Build 0)  -->
<svg version="1.1" id="Слой_1" xmlns="http://www.w3.org/2000/svg" xmlns:xlink="http://www.w3.org/1999/xlink" x="0px" y="0px"
	 viewBox="0 0 60.93 58.25" style="enable-background:new 0 0 60.93 58.25;" xml:space="preserve">
<style type="text/css">
	.st0{fill:#F29EC4;}
</style>
<g>
	<g>
		<g>
			<path class="st0" d="M30.91,55.61c-7.67-4.89-14.9-11.17-20.6-18.25c-3.91-4.86-7.51-10.8-7.7-17.2
				C2.43,13.95,4.55,6.68,10.68,3.94c6.94-3.1,14.37,1.28,19.02,6.33c0.87,0.95,2.28-0.47,1.41-1.41
				c-4.64-5.04-11.38-9.05-18.46-7.63C6.07,2.55,2.07,8.53,1.01,14.82c-1.22,7.22,0.9,13.86,4.88,19.87
				c3.84,5.8,8.85,10.79,14.15,15.25c3.13,2.64,6.4,5.19,9.86,7.39C30.99,58.03,31.99,56.3,30.91,55.61L30.91,55.61z"/>
		</g>
	</g>
	<g>
		<g>
			<path class="st0" d="M30.91,57.34c2.82-1.8,5.5-3.85,8.11-5.95c5.33-4.3,10.35-9.09,14.44-14.6c4.14-5.59,7.16-12.06,6.68-19.15
				c-0.45-6.55-3.41-13.3-9.9-15.79c-7.56-2.9-15.48,1.53-20.54,7.03c-0.87,0.95,0.54,2.36,1.41,1.41
				c4.27-4.64,10.66-8.66,17.22-6.96c6.27,1.64,9.29,7.94,9.78,13.96c0.54,6.7-2.17,12.68-6.03,18.01
				c-3.79,5.24-8.54,9.8-13.52,13.9c-2.77,2.28-5.64,4.49-8.66,6.42C28.82,56.3,29.82,58.03,30.91,57.34L30.91,57.34z"/>
		</g>
	</g>
</g>
</svg>
