<?xml version="1.0" encoding="utf-8"?>
<!-- Generator: Adobe Illustrator 23.1.0, SVG Export Plug-In . SVG Version: 6.00 Build 0)  -->
<svg version="1.1" id="Слой_1" xmlns="http://www.w3.org/2000/svg" xmlns:xlink="http://www.w3.org/1999/xlink" x="0px" y="0px"
	 viewBox="0 0 50.75 54.96" style="enable-background:new 0 0 50.75 54.96;" xml:space="preserve">
<style type="text/css">
	.st0{fill:#B0CE9F;}
</style>
<g>
	<g>
		<g>
			<path class="st0" d="M43.17,22.25C43.1,13.5,37.64,5.59,29.42,2.52C21.18-0.57,11.52,2.04,5.93,8.83
				c-5.6,6.81-6.41,16.65-1.86,24.23c4.53,7.55,13.48,11.49,22.11,9.84C36,41.02,43.09,32.16,43.17,22.25c0.01-1.29-1.99-1.29-2,0
				c-0.07,7.94-5.06,15.24-12.59,17.92c-7.51,2.68-16.03,0.33-21.13-5.79C2.34,28.26,1.7,19.28,5.8,12.45
				c4.08-6.8,12.23-10.45,20.02-8.89c8.87,1.78,15.27,9.67,15.35,18.69C41.18,23.54,43.18,23.54,43.17,22.25z"/>
		</g>
	</g>
	<g>
		<g>
			<path class="st0" d="M33.45,38.99c4.29,4.29,8.58,8.58,12.87,12.87c0.61,0.61,1.22,1.22,1.83,1.83c0.91,0.91,2.33-0.5,1.41-1.41
				c-4.29-4.29-8.58-8.58-12.87-12.87c-0.61-0.61-1.22-1.22-1.83-1.83C33.95,36.67,32.54,38.08,33.45,38.99L33.45,38.99z"/>
		</g>
	</g>
</g>
</svg>
