<?xml version="1.0" encoding="utf-8"?>
<!-- Generator: Adobe Illustrator 23.1.0, SVG Export Plug-In . SVG Version: 6.00 Build 0)  -->
<svg version="1.1" id="Слой_1" xmlns="http://www.w3.org/2000/svg" xmlns:xlink="http://www.w3.org/1999/xlink" x="0px" y="0px"
	 viewBox="0 0 44.09 60.99" style="enable-background:new 0 0 44.09 60.99;" xml:space="preserve">
<style type="text/css">
	.st0{fill:#5CC0C7;}
</style>
<g>
	<g>
		<g>
			<path class="st0" d="M43.54,59.29c0-3.7,0.2-7.45-0.05-11.14c-0.46-6.88-4.26-13.24-10.12-16.87c-6.02-3.74-13.66-4.17-20.1-1.24
				C7.05,32.87,2.42,38.78,1.17,45.5c-0.46,2.47-0.38,4.96-0.38,7.46c0,2.11,0,4.22,0,6.34c0,0.54,0.46,1,1,1
				c11.9,0,23.79,0,35.69,0c1.69,0,3.38,0,5.07,0c1.29,0,1.29-2,0-2c-11.9,0-23.79,0-35.69,0c-1.69,0-3.38,0-5.07,0
				c0.33,0.33,0.67,0.67,1,1c0-3.24-0.02-6.49,0-9.73c0.05-6.51,3.29-12.71,8.76-16.29c5.64-3.69,13.03-4.22,19.09-1.22
				c5.87,2.9,10.04,8.71,10.78,15.24c0.44,3.94,0.12,8.04,0.12,12.01C41.54,60.58,43.54,60.58,43.54,59.29z"/>
		</g>
	</g>
	<g>
		<g>
			<path class="st0" d="M36.75,15.45c-0.08-6.07-3.79-11.55-9.49-13.72c-5.7-2.17-12.41-0.37-16.28,4.33
				c-3.92,4.76-4.5,11.66-1.29,16.96c3.16,5.22,9.34,7.93,15.32,6.78C31.83,28.5,36.66,22.31,36.75,15.45c0.02-1.29-1.98-1.29-2,0
				c-0.07,5.26-3.32,10.12-8.34,11.9c-5,1.78-10.68,0.19-14.02-3.93c-3.33-4.1-3.71-10.03-0.98-14.54C14.11,4.42,19.5,2,24.63,3.06
				c5.88,1.21,10.04,6.44,10.11,12.4C34.76,16.74,36.76,16.74,36.75,15.45z"/>
		</g>
	</g>
</g>
</svg>
