<?xml version="1.0" encoding="utf-8"?>
<!-- Generator: Adobe Illustrator 23.1.0, SVG Export Plug-In . SVG Version: 6.00 Build 0)  -->
<svg version="1.1" xmlns="http://www.w3.org/2000/svg" xmlns:xlink="http://www.w3.org/1999/xlink" x="0px" y="0px"
	 viewBox="0 0 366.34 104.88" style="enable-background:new 0 0 366.34 104.88;" xml:space="preserve">
<style type="text/css">
	.st0{display:none;}
	.st1{fill:#FEA0C8;}
	.st2{fill:#E1ECDA;}
</style>
<g id="Слой_1" class="st0">
</g>
<g id="Слой_2">
	<g>
		<path class="st1" d="M40.22,65.6L20.99,46.47l-4.57,4.2v12.32v17.26h-9.7V62.99V29.96V13.07h9.7v16.89V47.4l20.25-18.48
			c0.09-0.09-0.19-0.19-0.09-0.19l17.35-15.68h3.27L44.79,24.73c-1.21,1.12-2.52,2.43-4.11,3.92l-1.49,1.68l-11.01,9.98l25.01,25.38
			c0.56,0.65,1.4,1.21,1.96,1.77l-0.09,0.19c0.09,0.09,0,0.19,0.09,0.28l12.32,12.32H54.12l-10.36-11.1v0.09
			C42.64,68.12,41.52,66.91,40.22,65.6z"/>
		<path class="st2" d="M113.46,68.49v11.76h-6.06V68.49v-9.52c0-2.99-0.09-5.13-0.37-6.53c-0.19-1.31-0.93-2.52-2.15-3.45
			c-1.21-1.03-2.71-1.49-4.48-1.49c-1.68,0-3.45,0.56-5.32,1.68c-1.77,1.12-3.64,2.8-5.51,5.04v14.28v11.76h-5.97V68.49V58.23V44.6
			h5.97v7.18c1.87-2.43,3.92-4.2,6.06-5.41c2.15-1.21,4.48-1.77,7-1.77c2.8,0,5.13,0.65,6.81,1.96c1.77,1.21,3.45,3.08,3.73,5.69
			c0,0,0.28,0.65,0.28,2.71V68.49z"/>
		<path class="st2" d="M160.12,57.01v13.62v10.54c0,0-0.09,0-5.88,0v-1.4V75.3c-2.8,1.96-5.32,3.45-7.56,4.39
			c-2.24,1.03-4.29,1.49-6.06,1.49c-4.2,0-7.65-5.04-7.65-7.93s0.65-4.57,3.36-6.72c2.8-2.15,6.62-4.2,11.48-6.16l6.44-2.61v-1.68
			c0-2.33-0.19-4.01-0.47-5.04c-0.37-1.03-1.12-1.96-2.43-2.8c-1.21-0.84-2.89-1.21-4.95-1.21c-3.27,0-5.32,0.65-7.09,1.87
			c-0.65-0.65-0.65-0.65-1.4-1.31c2.24-1.4,5.23-2.43,9.33-2.43c3.55,0,6.25,0.56,8.12,1.68c1.96,1.12,3.27,2.33,3.83,3.73
			C159.84,51.98,160.12,54.12,160.12,57.01z M154.24,59.72l-4.57,1.77c-7.09,2.89-10.64,6.53-10.64,10.92c0,1.77,0.47,3.17,1.4,4.2
			s2.05,1.59,3.55,1.59c1.31,0,2.8-0.47,4.48-1.31s3.64-2.15,5.79-3.83V59.72z"/>
		<path class="st2" d="M184.94,46.84V36.39h5.88v10.45h10.08v1.87h-10.08v20.25c0,3.17,0.09,5.22,0.37,6.34
			c0.28,1.03,0.84,1.96,1.77,2.61c0.84,0.65,1.77,0.93,2.8,0.93c1.96,0,3.73-1.12,5.13-3.36l1.31,0.84
			c-0.84,1.77-2.05,3.08-3.73,4.01c-1.68,0.93-3.36,1.4-5.04,1.4c-1.96,0-3.64-0.56-5.13-1.77c-1.49-1.12-2.43-2.52-2.8-4.01
			c-0.37-1.59-0.56-4.29-0.56-8.21V48.71h-4.85v-1.87H184.94z"/>
		<path class="st2" d="M243.54,73.9c-1.68,2.61-3.55,4.57-5.69,5.88c-2.15,1.31-4.48,1.96-7.09,1.96c-2.24,0-4.2-0.56-5.97-1.59
			c-1.68-1.03-2.89-2.24-3.55-3.73c-0.65-1.4-0.93-3.64-0.93-6.63V58.32V46.84h5.88v23.23c0,2.33,0.19,4.01,0.37,5.04
			c0.28,1.03,1.03,1.96,2.15,2.71c1.12,0.75,2.43,1.12,3.92,1.12c2.05,0,4.01-0.65,5.97-2.05c1.87-1.31,3.17-2.8,3.92-4.38
			c0.65-1.49,1.03-3.73,1.03-6.53v-7.65V46.84h5.88v22.02v11.85h-5.88V73.9z"/>
		<path class="st2" d="M279.65,50.02c-1.77,1.59-2.8,3.36-3.27,5.13s-0.65,4.2-0.65,7.28v6.06v11.76h-6.06V68.49v-9.7V44.6h5.6v8.86
			c2.05-7,9.14-9.98,14.18-7.28l-1.21,2.43C285.06,46.56,282.54,47.4,279.65,50.02z"/>
		<path class="st2" d="M328.92,57.01v13.62v10.54c0,0-0.09,0-5.88,0v-1.4V75.3c-2.8,1.96-5.32,3.45-7.56,4.39
			c-2.24,1.03-4.29,1.49-6.06,1.49c-4.2,0-7.65-5.04-7.65-7.93s0.65-4.57,3.36-6.72c2.8-2.15,6.63-4.2,11.48-6.16l6.44-2.61v-1.68
			c0-2.33-0.19-4.01-0.47-5.04c-0.37-1.03-1.12-1.96-2.43-2.8c-1.21-0.84-2.89-1.21-4.95-1.21c-3.27,0-5.32,0.65-7.09,1.87
			c-0.65-0.65-0.65-0.65-1.4-1.31c2.24-1.4,5.22-2.43,9.33-2.43c3.55,0,6.25,0.56,8.12,1.68c1.96,1.12,3.27,2.33,3.83,3.73
			C328.64,51.98,328.92,54.12,328.92,57.01z M323.04,59.72l-4.57,1.77c-7.09,2.89-10.64,6.53-10.64,10.92c0,1.77,0.47,3.17,1.4,4.2
			c0.93,1.03,2.05,1.59,3.55,1.59c1.31,0,2.8-0.47,4.48-1.31c1.68-0.84,3.64-2.15,5.79-3.83V59.72z"/>
		<path class="st2" d="M355.79,80.25h-6.06V68.49V34.62V22.68h4.95c0,0.09,0.09,0.09,0.19,0h0.93v45.81V80.25z"/>
	</g>
</g>
</svg>
